<?xml version="1.0" standalone="no"?>
<!DOCTYPE svg PUBLIC "-//W3C//DTD SVG 20010904//EN"
 "http://www.w3.org/TR/2001/REC-SVG-20010904/DTD/svg10.dtd">
<svg version="1.0" xmlns="http://www.w3.org/2000/svg"
 width="1280.000000pt" height="956.000000pt" viewBox="0 0 1280.000000 956.000000"
 preserveAspectRatio="xMidYMid meet">
<metadata>
Created by potrace 1.15, written by Peter Selinger 2001-2017
</metadata>
<g transform="translate(0.000000,956.000000) scale(0.100000,-0.100000)"
fill="#ffffff" stroke="none">
<path d="M6805 8884 c-280 -372 -517 -680 -526 -685 -12 -6 -292 102 -978 376
-528 212 -968 385 -976 385 -8 0 -151 -56 -317 -124 -167 -68 -442 -181 -613
-251 -170 -70 -643 -263 -1050 -430 -407 -167 -1017 -416 -1355 -555 -338
-138 -685 -280 -770 -315 -85 -35 -170 -70 -189 -78 l-33 -14 258 -139 c935
-500 1669 -895 1676 -902 4 -4 -110 -125 -255 -268 -319 -316 -1367 -1345
-1457 -1431 -36 -34 -62 -65 -58 -68 6 -7 483 -145 1603 -466 269 -77 491
-142 493 -143 1 -2 7 -39 12 -82 5 -44 19 -151 30 -239 11 -88 25 -194 30
-235 5 -41 14 -111 20 -155 6 -44 15 -114 20 -155 5 -41 14 -111 20 -155 6
-44 15 -114 20 -155 5 -41 19 -147 30 -235 11 -88 25 -194 30 -235 5 -41 14
-111 20 -155 6 -44 15 -114 20 -155 19 -154 39 -303 43 -306 3 -3 987 -350
1402 -494 61 -21 331 -115 600 -210 270 -94 571 -200 670 -235 99 -34 504
-176 900 -315 396 -139 725 -253 731 -254 5 0 320 280 700 624 379 344 1155
1048 1724 1565 l1035 939 7 155 c3 86 11 372 17 636 6 264 14 582 18 706 l6
227 51 39 c28 22 574 439 1214 928 639 488 1162 891 1162 894 0 3 -531 179
-1180 391 -717 234 -1179 389 -1178 396 2 7 212 377 467 823 255 446 462 813
460 816 -5 4 -183 23 -894 95 -220 23 -528 54 -685 70 -157 16 -442 45 -635
65 -192 19 -435 44 -540 55 -104 11 -323 33 -485 50 -162 16 -407 41 -543 55
-137 14 -252 25 -255 25 -4 -1 -236 -305 -517 -676z"/>
</g>
</svg>
